<svg width="40" height="29" viewBox="0 0 40 29" fill="none" xmlns="http://www.w3.org/2000/svg">
<g clip-path="url(#clip0_36_4)">
<path d="M11.4287 14.4996C11.4287 12.898 10.1495 11.5996 8.5715 11.5996C6.99355 11.5996 5.71436 12.898 5.71436 14.4996C5.71436 16.1012 6.99355 17.3996 8.5715 17.3996C10.1495 17.3996 11.4287 16.1012 11.4287 14.4996Z" fill="#444444"/>
<path d="M5.71429 14.4996C5.71429 12.898 4.4351 11.5996 2.85714 11.5996C1.27919 11.5996 0 12.898 0 14.4996C0 16.1012 1.27919 17.3996 2.85714 17.3996C4.4351 17.3996 5.71429 16.1012 5.71429 14.4996Z" fill="#444444"/>
<path d="M11.4287 20.3004C11.4287 18.6988 10.1495 17.4004 8.5715 17.4004C6.99355 17.4004 5.71436 18.6988 5.71436 20.3004C5.71436 21.902 6.99355 23.2004 8.5715 23.2004C10.1495 23.2004 11.4287 21.902 11.4287 20.3004Z" fill="#444444"/>
<path d="M11.4287 26.1002C11.4287 24.4986 10.1495 23.2002 8.5715 23.2002C6.99355 23.2002 5.71436 24.4986 5.71436 26.1002C5.71436 27.7018 6.99355 29.0002 8.5715 29.0002C10.1495 29.0002 11.4287 27.7018 11.4287 26.1002Z" fill="#444444"/>
<path d="M17.143 26.1002C17.143 24.4986 15.8638 23.2002 14.2858 23.2002C12.7079 23.2002 11.4287 24.4986 11.4287 26.1002C11.4287 27.7018 12.7079 29.0002 14.2858 29.0002C15.8638 29.0002 17.143 27.7018 17.143 26.1002Z" fill="#444444"/>
<path d="M11.4287 8.6998C11.4287 7.09817 10.1495 5.7998 8.5715 5.7998C6.99355 5.7998 5.71436 7.09817 5.71436 8.6998C5.71436 10.3014 6.99355 11.5998 8.5715 11.5998C10.1495 11.5998 11.4287 10.3014 11.4287 8.6998Z" fill="#444444"/>
<path d="M11.4287 2.9C11.4287 1.29838 10.1495 0 8.5715 0C6.99355 0 5.71436 1.29838 5.71436 2.9C5.71436 4.50163 6.99355 5.8 8.5715 5.8C10.1495 5.8 11.4287 4.50163 11.4287 2.9Z" fill="#444444"/>
<path d="M17.143 2.9C17.143 1.29838 15.8638 0 14.2858 0C12.7079 0 11.4287 1.29838 11.4287 2.9C11.4287 4.50163 12.7079 5.8 14.2858 5.8C15.8638 5.8 17.143 4.50163 17.143 2.9Z" fill="#444444"/>
<path d="M28.5713 14.4996C28.5713 12.898 29.8505 11.5996 31.4285 11.5996C33.0064 11.5996 34.2856 12.898 34.2856 14.4996C34.2856 16.1012 33.0064 17.3996 31.4285 17.3996C29.8505 17.3996 28.5713 16.1012 28.5713 14.4996Z" fill="#444444"/>
<path d="M34.2856 14.4996C34.2856 12.898 35.5648 11.5996 37.1428 11.5996C38.7207 11.5996 39.9999 12.898 39.9999 14.4996C39.9999 16.1012 38.7207 17.3996 37.1428 17.3996C35.5648 17.3996 34.2856 16.1012 34.2856 14.4996Z" fill="#444444"/>
<path d="M28.5713 20.3004C28.5713 18.6988 29.8505 17.4004 31.4285 17.4004C33.0064 17.4004 34.2856 18.6988 34.2856 20.3004C34.2856 21.902 33.0064 23.2004 31.4285 23.2004C29.8505 23.2004 28.5713 21.902 28.5713 20.3004Z" fill="#444444"/>
<path d="M28.5713 26.1002C28.5713 24.4986 29.8505 23.2002 31.4285 23.2002C33.0064 23.2002 34.2856 24.4986 34.2856 26.1002C34.2856 27.7018 33.0064 29.0002 31.4285 29.0002C29.8505 29.0002 28.5713 27.7018 28.5713 26.1002Z" fill="#444444"/>
<path d="M22.8569 26.1002C22.8569 24.4986 24.1361 23.2002 25.7141 23.2002C27.292 23.2002 28.5712 24.4986 28.5712 26.1002C28.5712 27.7018 27.292 29.0002 25.7141 29.0002C24.1361 29.0002 22.8569 27.7018 22.8569 26.1002Z" fill="#444444"/>
<path d="M28.5713 8.6998C28.5713 7.09817 29.8505 5.7998 31.4285 5.7998C33.0064 5.7998 34.2856 7.09817 34.2856 8.6998C34.2856 10.3014 33.0064 11.5998 31.4285 11.5998C29.8505 11.5998 28.5713 10.3014 28.5713 8.6998Z" fill="#444444"/>
<path d="M28.5713 2.9C28.5713 1.29838 29.8505 0 31.4285 0C33.0064 0 34.2856 1.29838 34.2856 2.9C34.2856 4.50163 33.0064 5.8 31.4285 5.8C29.8505 5.8 28.5713 4.50163 28.5713 2.9Z" fill="#444444"/>
<path d="M22.8569 2.9C22.8569 1.29838 24.1361 0 25.7141 0C27.292 0 28.5712 1.29838 28.5712 2.9C28.5712 4.50163 27.292 5.8 25.7141 5.8C24.1361 5.8 22.8569 4.50163 22.8569 2.9Z" fill="#444444"/>
</g>
<defs>
<clipPath id="clip0_36_4">
<rect width="40" height="29" fill="white"/>
</clipPath>
</defs>
</svg>
