<svg width="40" height="30" viewBox="0 0 40 30" fill="none" xmlns="http://www.w3.org/2000/svg">
<circle cx="8.52841" cy="15" r="2.84286" fill="white"/>
<circle cx="2.84286" cy="15" r="2.84286" fill="white"/>
<circle cx="8.52841" cy="9.3143" r="2.84286" fill="white"/>
<circle cx="8.52841" cy="3.62857" r="2.84286" fill="white"/>
<circle cx="14.214" cy="3.62857" r="2.84286" fill="white"/>
<circle cx="8.52841" cy="20.6858" r="2.84286" fill="white"/>
<circle cx="8.52841" cy="26.3714" r="2.84286" fill="white"/>
<circle cx="14.214" cy="26.3714" r="2.84286" fill="white"/>
<circle cx="2.84286" cy="2.84286" r="2.84286" transform="matrix(-1 0 0 1 34.1152 12.1572)" fill="white"/>
<circle cx="2.84286" cy="2.84286" r="2.84286" transform="matrix(-1 0 0 1 39.8008 12.1572)" fill="white"/>
<circle cx="2.84286" cy="2.84286" r="2.84286" transform="matrix(-1 0 0 1 34.1152 6.47144)" fill="white"/>
<circle cx="2.84286" cy="2.84286" r="2.84286" transform="matrix(-1 0 0 1 34.1152 0.785706)" fill="white"/>
<circle cx="2.84286" cy="2.84286" r="2.84286" transform="matrix(-1 0 0 1 28.4297 0.785706)" fill="white"/>
<circle cx="2.84286" cy="2.84286" r="2.84286" transform="matrix(-1 0 0 1 34.1152 17.8428)" fill="white"/>
<circle cx="2.84286" cy="2.84286" r="2.84286" transform="matrix(-1 0 0 1 34.1152 23.5286)" fill="white"/>
<circle cx="2.84286" cy="2.84286" r="2.84286" transform="matrix(-1 0 0 1 28.4297 23.5286)" fill="white"/>
</svg>
