<svg width="40" height="29" viewBox="0 0 40 29" fill="none" xmlns="http://www.w3.org/2000/svg">
<path d="M11.4286 14.5C11.4286 12.8984 10.1494 11.6 8.57143 11.6C6.99348 11.6 5.71429 12.8984 5.71429 14.5C5.71429 16.1016 6.99348 17.4 8.57143 17.4C10.1494 17.4 11.4286 16.1016 11.4286 14.5Z" fill="#499350"/>
<path d="M5.71429 14.5C5.71429 12.8984 4.4351 11.6 2.85714 11.6C1.27919 11.6 0 12.8984 0 14.5C0 16.1016 1.27919 17.4 2.85714 17.4C4.4351 17.4 5.71429 16.1016 5.71429 14.5Z" fill="#499350"/>
<path d="M11.4286 20.3C11.4286 18.6984 10.1494 17.4 8.57143 17.4C6.99348 17.4 5.71429 18.6984 5.71429 20.3C5.71429 21.9016 6.99348 23.2 8.57143 23.2C10.1494 23.2 11.4286 21.9016 11.4286 20.3Z" fill="#499350"/>
<path d="M11.4286 26.1C11.4286 24.4984 10.1494 23.2 8.57143 23.2C6.99348 23.2 5.71429 24.4984 5.71429 26.1C5.71429 27.7016 6.99348 29 8.57143 29C10.1494 29 11.4286 27.7016 11.4286 26.1Z" fill="#499350"/>
<path d="M17.1429 26.1C17.1429 24.4984 15.8637 23.2 14.2857 23.2C12.7078 23.2 11.4286 24.4984 11.4286 26.1C11.4286 27.7016 12.7078 29 14.2857 29C15.8637 29 17.1429 27.7016 17.1429 26.1Z" fill="#499350"/>
<path d="M11.4286 8.7C11.4286 7.09837 10.1494 5.8 8.57143 5.8C6.99348 5.8 5.71429 7.09837 5.71429 8.7C5.71429 10.3016 6.99348 11.6 8.57143 11.6C10.1494 11.6 11.4286 10.3016 11.4286 8.7Z" fill="#499350"/>
<path d="M11.4286 2.9C11.4286 1.29838 10.1494 2.08616e-07 8.57143 2.08616e-07C6.99348 2.08616e-07 5.71429 1.29838 5.71429 2.9C5.71429 4.50163 6.99348 5.8 8.57143 5.8C10.1494 5.8 11.4286 4.50163 11.4286 2.9Z" fill="#499350"/>
<path d="M17.1429 2.9C17.1429 1.29838 15.8637 2.08616e-07 14.2857 2.08616e-07C12.7078 2.08616e-07 11.4286 1.29838 11.4286 2.9C11.4286 4.50163 12.7078 5.8 14.2857 5.8C15.8637 5.8 17.1429 4.50163 17.1429 2.9Z" fill="#499350"/>
<path d="M28.5714 14.5C28.5714 12.8984 29.8506 11.6 31.4286 11.6C33.0065 11.6 34.2857 12.8984 34.2857 14.5C34.2857 16.1016 33.0065 17.4 31.4286 17.4C29.8506 17.4 28.5714 16.1016 28.5714 14.5Z" fill="#499350"/>
<path d="M34.2857 14.5C34.2857 12.8984 35.5649 11.6 37.1429 11.6C38.7208 11.6 40 12.8984 40 14.5C40 16.1016 38.7208 17.4 37.1429 17.4C35.5649 17.4 34.2857 16.1016 34.2857 14.5Z" fill="#499350"/>
<path d="M28.5714 20.3C28.5714 18.6984 29.8506 17.4 31.4286 17.4C33.0065 17.4 34.2857 18.6984 34.2857 20.3C34.2857 21.9016 33.0065 23.2 31.4286 23.2C29.8506 23.2 28.5714 21.9016 28.5714 20.3Z" fill="#499350"/>
<path d="M28.5714 26.1C28.5714 24.4984 29.8506 23.2 31.4286 23.2C33.0065 23.2 34.2857 24.4984 34.2857 26.1C34.2857 27.7016 33.0065 29 31.4286 29C29.8506 29 28.5714 27.7016 28.5714 26.1Z" fill="#499350"/>
<path d="M22.8571 26.1C22.8571 24.4984 24.1363 23.2 25.7143 23.2C27.2922 23.2 28.5714 24.4984 28.5714 26.1C28.5714 27.7016 27.2922 29 25.7143 29C24.1363 29 22.8571 27.7016 22.8571 26.1Z" fill="#499350"/>
<path d="M28.5714 8.7C28.5714 7.09837 29.8506 5.8 31.4286 5.8C33.0065 5.8 34.2857 7.09837 34.2857 8.7C34.2857 10.3016 33.0065 11.6 31.4286 11.6C29.8506 11.6 28.5714 10.3016 28.5714 8.7Z" fill="#499350"/>
<path d="M28.5714 2.9C28.5714 1.29838 29.8506 2.08616e-07 31.4286 2.08616e-07C33.0065 2.08616e-07 34.2857 1.29838 34.2857 2.9C34.2857 4.50163 33.0065 5.8 31.4286 5.8C29.8506 5.8 28.5714 4.50163 28.5714 2.9Z" fill="#499350"/>
<path d="M22.8571 2.9C22.8571 1.29838 24.1363 2.08616e-07 25.7143 2.08616e-07C27.2922 2.08616e-07 28.5714 1.29838 28.5714 2.9C28.5714 4.50163 27.2922 5.8 25.7143 5.8C24.1363 5.8 22.8571 4.50163 22.8571 2.9Z" fill="#499350"/>
</svg>
