<svg width="25" height="24" viewBox="0 0 25 24" fill="none" xmlns="http://www.w3.org/2000/svg">
<g clip-path="url(#clip0_213_571)">
<path d="M12.7666 2.16094C15.9729 2.16094 16.3525 2.175 17.6135 2.23125C18.7854 2.28281 19.4182 2.47969 19.84 2.64375C20.3979 2.85938 20.801 3.12188 21.2182 3.53906C21.64 3.96094 21.8979 4.35938 22.1135 4.91719C22.2775 5.33906 22.4744 5.97656 22.526 7.14375C22.5822 8.40937 22.5963 8.78906 22.5963 11.9906C22.5963 15.1969 22.5822 15.5766 22.526 16.8375C22.4744 18.0094 22.2775 18.6422 22.1135 19.0641C21.8979 19.6219 21.6354 20.025 21.2182 20.4422C20.7963 20.8641 20.3979 21.1219 19.84 21.3375C19.4182 21.5016 18.7807 21.6984 17.6135 21.75C16.3479 21.8063 15.9682 21.8203 12.7666 21.8203C9.56035 21.8203 9.18066 21.8063 7.91973 21.75C6.74785 21.6984 6.11504 21.5016 5.69316 21.3375C5.13535 21.1219 4.73223 20.8594 4.31504 20.4422C3.89316 20.0203 3.63535 19.6219 3.41973 19.0641C3.25566 18.6422 3.05879 18.0047 3.00723 16.8375C2.95098 15.5719 2.93691 15.1922 2.93691 11.9906C2.93691 8.78438 2.95098 8.40469 3.00723 7.14375C3.05879 5.97187 3.25566 5.33906 3.41973 4.91719C3.63535 4.35938 3.89785 3.95625 4.31504 3.53906C4.73691 3.11719 5.13535 2.85938 5.69316 2.64375C6.11504 2.47969 6.75254 2.28281 7.91973 2.23125C9.18066 2.175 9.56035 2.16094 12.7666 2.16094ZM12.7666 0C9.50879 0 9.10098 0.0140625 7.82129 0.0703125C6.54629 0.126563 5.66973 0.332812 4.91035 0.628125C4.11816 0.9375 3.44785 1.34531 2.78223 2.01562C2.11191 2.68125 1.7041 3.35156 1.39473 4.13906C1.09941 4.90313 0.893164 5.775 0.836914 7.05C0.780664 8.33437 0.766602 8.74219 0.766602 12C0.766602 15.2578 0.780664 15.6656 0.836914 16.9453C0.893164 18.2203 1.09941 19.0969 1.39473 19.8563C1.7041 20.6484 2.11191 21.3188 2.78223 21.9844C3.44785 22.65 4.11816 23.0625 4.90566 23.3672C5.66973 23.6625 6.5416 23.8687 7.8166 23.925C9.09629 23.9812 9.5041 23.9953 12.7619 23.9953C16.0197 23.9953 16.4275 23.9812 17.7072 23.925C18.9822 23.8687 19.8588 23.6625 20.6182 23.3672C21.4057 23.0625 22.076 22.65 22.7416 21.9844C23.4072 21.3188 23.8197 20.6484 24.1244 19.8609C24.4197 19.0969 24.626 18.225 24.6822 16.95C24.7385 15.6703 24.7525 15.2625 24.7525 12.0047C24.7525 8.74688 24.7385 8.33906 24.6822 7.05938C24.626 5.78438 24.4197 4.90781 24.1244 4.14844C23.8291 3.35156 23.4213 2.68125 22.751 2.01562C22.0854 1.35 21.415 0.9375 20.6275 0.632812C19.8635 0.3375 18.9916 0.13125 17.7166 0.075C16.4322 0.0140625 16.0244 0 12.7666 0Z" fill="white"/>
<path d="M12.7666 5.83594C9.36348 5.83594 6.60254 8.59688 6.60254 12C6.60254 15.4031 9.36348 18.1641 12.7666 18.1641C16.1697 18.1641 18.9307 15.4031 18.9307 12C18.9307 8.59688 16.1697 5.83594 12.7666 5.83594ZM12.7666 15.9984C10.5588 15.9984 8.76816 14.2078 8.76816 12C8.76816 9.79219 10.5588 8.00156 12.7666 8.00156C14.9744 8.00156 16.765 9.79219 16.765 12C16.765 14.2078 14.9744 15.9984 12.7666 15.9984Z" fill="white"/>
<path d="M20.6135 5.59214C20.6135 6.38902 19.9666 7.0312 19.1744 7.0312C18.3775 7.0312 17.7354 6.38433 17.7354 5.59214C17.7354 4.79526 18.3822 4.15308 19.1744 4.15308C19.9666 4.15308 20.6135 4.79995 20.6135 5.59214Z" fill="white"/>
</g>
<defs>
<clipPath id="clip0_213_571">
<rect width="24" height="24" fill="white" transform="translate(0.766602)"/>
</clipPath>
</defs>
</svg>
