<svg width="16" height="13" viewBox="0 0 16 13" fill="none" xmlns="http://www.w3.org/2000/svg">
<path d="M13.3334 8.66671V2.66671C13.3334 2.31309 13.1929 1.97395 12.9429 1.7239C12.6928 1.47385 12.3537 1.33337 12.0001 1.33337H4.00005C3.64643 1.33337 3.30729 1.47385 3.05725 1.7239C2.8072 1.97395 2.66672 2.31309 2.66672 2.66671V8.66671M13.3334 8.66671H2.66672M13.3334 8.66671L14.1867 10.3667C14.2381 10.4687 14.2625 10.5822 14.2574 10.6963C14.2523 10.8104 14.218 10.9213 14.1578 11.0183C14.0976 11.1153 14.0134 11.1953 13.9134 11.2504C13.8134 11.3056 13.7009 11.3342 13.5867 11.3334H2.41339C2.29918 11.3342 2.18668 11.3056 2.08668 11.2504C1.98668 11.1953 1.90254 11.1153 1.84231 11.0183C1.78208 10.9213 1.74778 10.8104 1.74272 10.6963C1.73766 10.5822 1.76199 10.4687 1.81339 10.3667L2.66672 8.66671" stroke="#525252" stroke-width="2" stroke-linecap="round" stroke-linejoin="round"/>
</svg>
