<svg width="25" height="24" viewBox="0 0 25 24" fill="none" xmlns="http://www.w3.org/2000/svg">
<path fill-rule="evenodd" clip-rule="evenodd" d="M24.7666 12C24.7666 18.6274 19.394 24 12.7666 24C6.13918 24 0.766602 18.6274 0.766602 12C0.766602 5.37258 6.13918 0 12.7666 0C19.394 0 24.7666 5.37258 24.7666 12ZM13.1966 8.85893C12.0294 9.3444 9.69674 10.3492 6.19849 11.8733C5.63043 12.0992 5.33286 12.3202 5.30577 12.5363C5.25999 12.9015 5.71731 13.0453 6.34007 13.2411C6.42478 13.2678 6.51256 13.2954 6.60254 13.3246C7.21524 13.5238 8.03943 13.7568 8.46789 13.766C8.85655 13.7744 9.29033 13.6142 9.76924 13.2853C13.0378 11.079 14.725 9.96381 14.8309 9.93977C14.9056 9.92281 15.0092 9.90148 15.0794 9.96385C15.1495 10.0262 15.1426 10.1443 15.1352 10.176C15.0899 10.3691 13.2947 12.0381 12.3657 12.9018C12.0761 13.171 11.8707 13.362 11.8287 13.4056C11.7346 13.5033 11.6387 13.5958 11.5466 13.6846C10.9774 14.2333 10.5505 14.6448 11.5702 15.3168C12.0602 15.6397 12.4524 15.9067 12.8436 16.1731C13.2708 16.4641 13.6969 16.7543 14.2482 17.1157C14.3887 17.2077 14.5228 17.3034 14.6535 17.3965C15.1507 17.751 15.5974 18.0694 16.1492 18.0186C16.4698 17.9891 16.8011 17.6876 16.9693 16.7884C17.3668 14.6631 18.1482 10.0585 18.3288 8.16097C18.3446 7.99473 18.3247 7.78197 18.3088 7.68857C18.2928 7.59518 18.2594 7.46211 18.138 7.3636C17.9942 7.24694 17.7722 7.22234 17.673 7.22408C17.2216 7.23203 16.5292 7.47282 13.1966 8.85893Z" fill="white"/>
</svg>
