<svg width="25" height="24" viewBox="0 0 25 24" fill="none" xmlns="http://www.w3.org/2000/svg">
<path fill-rule="evenodd" clip-rule="evenodd" d="M2.45367 1.68707C0.766602 3.37413 0.766602 6.0894 0.766602 11.52V12.48C0.766602 17.9106 0.766602 20.6259 2.45367 22.313C4.14073 24 6.856 24 12.2866 24H13.2466C18.6772 24 21.3925 24 23.0796 22.313C24.7666 20.6259 24.7666 17.9106 24.7666 12.48V11.52C24.7666 6.0894 24.7666 3.37413 23.0796 1.68707C21.3925 0 18.6772 0 13.2466 0H12.2866C6.856 0 4.14073 0 2.45367 1.68707ZM4.81666 7.30005C4.94666 13.54 8.06665 17.2901 13.5367 17.2901H13.8467V13.72C15.8567 13.92 17.3766 15.3901 17.9866 17.2901H20.8267C20.0466 14.4501 17.9966 12.8801 16.7166 12.2801C17.9966 11.5401 19.7966 9.74005 20.2266 7.30005H17.6465C17.0865 9.28005 15.4267 11.08 13.8467 11.25V7.30005H11.2666V14.22C9.6666 13.8201 7.64665 11.88 7.55665 7.30005H4.81666Z" fill="white"/>
</svg>
