<svg width="25" height="24" viewBox="0 0 25 24" fill="none" xmlns="http://www.w3.org/2000/svg">
<path d="M0.766602 23.9999L2.4536 17.837C1.4126 16.033 0.865601 13.988 0.866601 11.891C0.869601 5.33499 6.20459 0 12.7596 0C15.9406 0.000999998 18.9266 1.24 21.1726 3.48799C23.4176 5.73599 24.6535 8.72398 24.6525 11.902C24.6495 18.459 19.3146 23.7939 12.7596 23.7939C10.7696 23.7929 8.80858 23.2939 7.07159 22.346L0.766602 23.9999ZM7.36359 20.193C9.03958 21.188 10.6396 21.784 12.7556 21.785C18.2036 21.785 22.6416 17.351 22.6446 11.9C22.6466 6.43799 18.2296 2.01 12.7636 2.008C7.31159 2.008 2.8766 6.44199 2.8746 11.892C2.8736 14.117 3.5256 15.783 4.62059 17.526L3.6216 21.174L7.36359 20.193ZM18.7506 14.729C18.6766 14.605 18.4786 14.531 18.1806 14.382C17.8836 14.233 16.4226 13.514 16.1496 13.415C15.8776 13.316 15.6796 13.266 15.4806 13.564C15.2826 13.861 14.7126 14.531 14.5396 14.729C14.3666 14.927 14.1926 14.952 13.8956 14.803C13.5986 14.654 12.6406 14.341 11.5056 13.328C10.6226 12.54 10.0256 11.567 9.85258 11.269C9.67958 10.972 9.83458 10.811 9.98258 10.663C10.1166 10.53 10.2796 10.316 10.4286 10.142C10.5796 9.96998 10.6286 9.84598 10.7286 9.64698C10.8276 9.44898 10.7786 9.27498 10.7036 9.12598C10.6286 8.97798 10.0346 7.51498 9.78758 6.91998C9.54558 6.34099 9.30058 6.41899 9.11858 6.40999L8.54858 6.39999C8.35058 6.39999 8.02858 6.47399 7.75659 6.77198C7.48459 7.06998 6.71659 7.78798 6.71659 9.25098C6.71659 10.714 7.78159 12.127 7.92958 12.325C8.07858 12.523 10.0246 15.525 13.0056 16.812C13.7146 17.118 14.2686 17.301 14.6996 17.438C15.4116 17.664 16.0596 17.632 16.5716 17.556C17.1426 17.471 18.3296 16.837 18.5776 16.143C18.8256 15.448 18.8256 14.853 18.7506 14.729Z" fill="white"/>
</svg>
