<svg width="9" height="17" viewBox="0 0 9 17" fill="none" xmlns="http://www.w3.org/2000/svg">
<path fill-rule="evenodd" clip-rule="evenodd" d="M6.01745 16.0416C5.69517 16.0414 5.37681 15.9699 5.08462 15.832C4.79243 15.694 4.53347 15.493 4.32585 15.243C4.77622 14.8906 5.34372 14.729 5.90912 14.792C6.47452 14.8551 6.99384 15.1379 7.35797 15.5811C6.97228 15.8808 6.49973 16.0427 6.01391 16.0416H6.01745ZM6.98915 13.4337C6.98859 12.9421 7.14817 12.4641 7.44308 12.074C7.87831 12.4443 8.15615 12.9705 8.21889 13.5433C8.28163 14.116 8.12444 14.6912 7.77999 15.1495C7.53285 14.9392 7.33401 14.6767 7.1974 14.3803C7.06079 14.0839 6.98972 13.7608 6.98915 13.4337ZM3.69814 14.0596C3.38594 13.9749 3.09584 13.8219 2.8483 13.6112C2.60075 13.4005 2.40178 13.1373 2.26542 12.8401C2.79073 12.6206 3.37929 12.6152 3.90847 12.8249C4.43764 13.0347 4.86663 13.4434 5.10604 13.966C4.67339 14.1459 4.18399 14.1891 3.69814 14.0596ZM5.30464 11.7934C5.43003 11.32 5.70543 10.9017 6.08838 10.6027C6.4136 11.0748 6.54714 11.6558 6.4613 12.2251C6.37546 12.7944 6.07682 13.3084 5.62736 13.6603C5.44236 13.3919 5.31759 13.0857 5.26183 12.7631C5.20608 12.4406 5.22069 12.1096 5.30464 11.7934ZM1.6058 11.3905C1.35698 11.1824 1.156 10.9217 1.01695 10.6265C0.877891 10.3314 0.804114 10.009 0.800781 9.68188C1.36941 9.70139 1.90854 9.94335 2.30519 10.3571C2.70185 10.7708 2.92525 11.3242 2.92859 11.9013C2.44426 11.8833 1.97931 11.7038 1.6058 11.3905ZM3.99249 10.0092C4.31166 9.61354 4.74077 9.36174 5.19825 9.25382C5.30147 9.82106 5.18509 10.4068 4.87331 10.8892C4.56153 11.3716 4.07837 11.7135 3.52437 11.8437C3.46555 11.5218 3.47698 11.1908 3.55786 10.8738C3.63873 10.5569 3.78709 10.2618 3.99249 10.0092ZM1.22634 8.23584C1.03907 7.96923 0.91156 7.6643 0.852749 7.34242C0.793938 7.02055 0.805251 6.68952 0.885894 6.37254C1.43005 6.54056 1.88901 6.91563 2.16666 7.41919C2.4443 7.92274 2.51909 8.51574 2.37536 9.07397C1.91187 8.93043 1.508 8.63584 1.22634 8.23584ZM3.8861 7.52721C4.28052 7.24195 4.75667 7.09656 5.2408 7.11355C5.19465 7.68754 4.93241 8.22148 4.50848 8.60459C4.08456 8.9877 3.5315 9.19056 2.96405 9.17109C2.99005 8.84491 3.08605 8.52844 3.24533 8.24385C3.4046 7.95927 3.6233 7.71345 3.8861 7.52362V7.52721ZM1.55261 5.03442C1.45784 4.72127 1.43191 4.39085 1.47663 4.06644C1.52136 3.74202 1.63566 3.4315 1.81149 3.15673C2.27452 3.49117 2.59213 3.99425 2.69788 4.56075C2.80364 5.12726 2.68934 5.71329 2.3789 6.19628C1.98537 5.91132 1.69505 5.5031 1.55261 5.03442ZM4.29748 5.21427C4.75991 5.0714 5.25581 5.08656 5.70892 5.25744C5.48643 5.78747 5.07124 6.21024 4.54956 6.43797C4.02787 6.66571 3.43976 6.68092 2.90731 6.48046C3.0344 6.18001 3.22465 5.91135 3.46477 5.69327C3.7049 5.47518 3.98909 5.31294 4.29748 5.21787V5.21427ZM2.90022 2.47687C2.81865 1.79342 3.04916 1.14595 3.47827 0.678321C3.87586 1.09007 4.10146 1.64156 4.10807 2.21786C4.11467 2.79416 3.90177 3.35082 3.51373 3.77183C3.17422 3.42049 2.95855 2.96528 2.90022 2.47687ZM5.57061 3.14594C6.05106 3.08773 6.53704 3.19138 6.95369 3.4409C6.64227 3.92292 6.16 4.26497 5.60677 4.39622C5.05354 4.52747 4.47173 4.43785 3.98185 4.14593C4.15867 3.87174 4.39252 3.64013 4.66699 3.46737C4.94146 3.29462 5.24989 3.1849 5.57061 3.14594ZM5.91461 0.696307C6.29359 0.391679 6.761 0.222265 7.24449 0.214294C7.22722 0.790549 6.99167 1.33789 6.5868 1.74252C6.18193 2.14716 5.6389 2.37796 5.07058 2.38695C5.08097 2.05972 5.16192 1.73877 5.30774 1.44668C5.45356 1.15459 5.66071 0.898464 5.91461 0.696307Z" fill="#FFAB19"/>
</svg>
